# Blender 5.0.1
# www.blender.org
o Cylinder
v 0.000000 -0.500000 -0.400000
v 0.000000 0.500000 -0.400000
v 0.282843 -0.500000 -0.282843
v 0.282843 0.500000 -0.282843
v 0.400000 -0.500000 0.000000
v 0.400000 0.500000 0.000000
v 0.282843 -0.500000 0.282843
v 0.282843 0.500000 0.282843
v 0.000000 -0.500000 0.400000
v 0.000000 0.500000 0.400000
v -0.282843 -0.500000 0.282843
v -0.282843 0.500000 0.282843
v -0.400000 -0.500000 0.000000
v -0.400000 0.500000 0.000000
v -0.282843 -0.500000 -0.282843
v -0.282843 0.500000 -0.282843
v 0.000000 0.000000 -0.500000
v 0.353553 0.000000 -0.353553
v 0.500000 0.000000 0.000000
v 0.353553 0.000000 0.353553
v 0.000000 0.000000 0.500000
v -0.353553 0.000000 0.353553
v -0.500000 0.000000 0.000000
v -0.353553 0.000000 -0.353553
vn -0.9085 -0.1817 0.3763
vn 0.9085 -0.1817 0.3763
vn 0.3763 -0.1817 -0.9085
vn -0.0000 1.0000 -0.0000
vn 0.9085 -0.1817 -0.3763
vn -0.0000 -1.0000 -0.0000
vn -0.3763 -0.1817 0.9085
vn 0.3763 -0.1817 0.9085
vn -0.9085 -0.1817 -0.3763
vn -0.3763 0.1817 -0.9085
vn -0.3763 0.1817 0.9085
vn 0.3763 0.1817 -0.9085
vn 0.9085 0.1817 -0.3763
vn 0.9085 0.1817 0.3763
vn 0.3763 0.1817 0.9085
vn -0.9085 0.1817 0.3763
vn -0.9085 0.1817 -0.3763
vn -0.3763 -0.1817 -0.9085
vt 0.250000 0.750000
vt 0.375000 0.500000
vt 0.375000 0.750000
vt 0.625000 0.750000
vt 0.750000 0.500000
vt 0.750000 0.750000
vt 0.875000 0.750000
vt 1.000000 0.500000
vt 1.000000 0.750000
vt 0.250000 0.490000
vt 0.250000 0.010000
vt 0.490000 0.250000
vt 0.875000 0.500000
vt 0.919706 0.419706
vt 0.580294 0.080294
vt 0.580294 0.419706
vt 0.500000 0.500000
vt 0.500000 0.750000
vt 0.625000 0.500000
vt 0.125000 0.750000
vt 0.250000 0.500000
vt 0.000000 1.000000
vt 0.125000 1.000000
vt 0.375000 1.000000
vt 0.500000 1.000000
vt 0.875000 1.000000
vt 1.000000 1.000000
vt 0.750000 1.000000
vt 0.625000 1.000000
vt 0.419706 0.419706
vt 0.080294 0.419706
vt 0.010000 0.250000
vt 0.080294 0.080294
vt 0.419706 0.080294
vt 0.250000 1.000000
vt 0.750000 0.490000
vt 0.990000 0.250000
vt 0.919706 0.080294
vt 0.750000 0.010000
vt 0.510000 0.250000
vt 0.000000 0.750000
vt 0.125000 0.500000
vt 0.000000 0.500000
s 0
f 23/1/1 11/2/1 22/3/1
f 20/4/2 5/5/2 19/6/2
f 18/7/3 1/8/3 17/9/3
f 2/10/4 10/11/4 6/12/4
f 19/6/5 3/13/5 18/7/5
f 3/14/6 11/15/6 15/16/6
f 22/3/7 9/17/7 21/18/7
f 21/18/8 7/19/8 20/4/8
f 24/20/9 13/21/9 23/1/9
f 2/22/10 24/20/10 16/23/10
f 12/24/11 21/18/11 10/25/11
f 4/26/12 17/9/12 2/27/12
f 6/28/13 18/7/13 4/26/13
f 8/29/14 19/6/14 6/28/14
f 10/25/15 20/4/15 8/29/15
f 6/12/4 4/30/4 2/10/4
f 2/10/4 16/31/4 14/32/4
f 14/32/4 12/33/4 10/11/4
f 10/11/4 8/34/4 6/12/4
f 14/35/16 22/3/16 12/24/16
f 15/16/6 1/36/6 3/14/6
f 3/14/6 5/37/6 7/38/6
f 7/38/6 9/39/6 11/15/6
f 11/15/6 13/40/6 15/16/6
f 16/23/17 23/1/17 14/35/17
f 17/41/18 15/42/18 24/20/18
f 23/1/1 13/21/1 11/2/1
f 20/4/2 7/19/2 5/5/2
f 18/7/3 3/13/3 1/8/3
f 2/10/4 14/32/4 10/11/4
f 19/6/5 5/5/5 3/13/5
f 3/14/6 7/38/6 11/15/6
f 22/3/7 11/2/7 9/17/7
f 21/18/8 9/17/8 7/19/8
f 24/20/9 15/42/9 13/21/9
f 2/22/10 17/41/10 24/20/10
f 12/24/11 22/3/11 21/18/11
f 4/26/12 18/7/12 17/9/12
f 6/28/13 19/6/13 18/7/13
f 8/29/14 20/4/14 19/6/14
f 10/25/15 21/18/15 20/4/15
f 14/35/16 23/1/16 22/3/16
f 16/23/17 24/20/17 23/1/17
f 17/41/18 1/43/18 15/42/18
